<svg width="230" height="88" viewBox="0 0 230 88" fill="none" xmlns="http://www.w3.org/2000/svg">
<path d="M228.113 40.5371C229.558 38.866 229.378 36.3356 227.67 34.9346C211.525 21.6906 192.843 11.8593 172.755 6.05405C151.385 -0.121655 128.931 -1.59456 106.938 1.73666C84.9441 5.06788 63.9333 13.1242 45.3508 25.3512C27.8829 36.8449 12.9505 51.7675 1.45152 69.1985C0.235044 71.0426 0.812446 73.5127 2.68745 74.6809L22.3666 86.9416C24.2416 88.1097 26.7032 87.5326 27.9318 85.6966C37.0406 72.085 48.7882 60.4209 62.4928 51.4035C77.3122 41.6525 94.0682 35.2276 111.608 32.571C129.148 29.9144 147.055 31.089 164.097 36.0141C179.857 40.5687 194.532 48.2307 207.263 58.5344C208.98 59.9242 211.502 59.7465 212.947 58.0754L228.113 40.5371Z" fill="#BD5B00"/>
</svg>
