<svg width="316" height="240" viewBox="0 0 316 240" fill="none" xmlns="http://www.w3.org/2000/svg">
<g filter="url(#filter0_d_2549_703)">
<mask id="path-1-inside-1_2549_703" fill="white">
<path d="M312 154C312 239.052 243.052 308 158 308C72.9481 308 4 239.052 4 154C4 68.9481 72.9481 0 158 0C243.052 0 312 68.9481 312 154ZM35.186 154C35.186 221.828 90.1717 276.814 158 276.814C225.828 276.814 280.814 221.828 280.814 154C280.814 86.1717 225.828 31.186 158 31.186C90.1717 31.186 35.186 86.1717 35.186 154Z"/>
</mask>
<path d="M312 154C312 239.052 243.052 308 158 308C72.9481 308 4 239.052 4 154C4 68.9481 72.9481 0 158 0C243.052 0 312 68.9481 312 154ZM35.186 154C35.186 221.828 90.1717 276.814 158 276.814C225.828 276.814 280.814 221.828 280.814 154C280.814 86.1717 225.828 31.186 158 31.186C90.1717 31.186 35.186 86.1717 35.186 154Z" fill="#C4C4C4" stroke="black" stroke-width="2" mask="url(#path-1-inside-1_2549_703)"/>
<mask id="path-2-inside-2_2549_703" fill="white">
<path d="M256.113 40.5371C257.558 38.866 257.378 36.3356 255.67 34.9346C239.525 21.6906 220.843 11.8593 200.755 6.05405C179.385 -0.121655 156.931 -1.59456 134.938 1.73666C112.944 5.06788 91.9333 13.1242 73.3508 25.3512C55.8829 36.8449 40.9505 51.7675 29.4515 69.1985C28.235 71.0426 28.8124 73.5127 30.6875 74.6809L50.3666 86.9416C52.2416 88.1097 54.7032 87.5326 55.9318 85.6966C65.0406 72.085 76.7882 60.4209 90.4928 51.4035C105.312 41.6525 122.068 35.2276 139.608 32.571C157.148 29.9144 175.055 31.089 192.097 36.0141C207.857 40.5687 222.532 48.2307 235.263 58.5344C236.98 59.9242 239.502 59.7465 240.947 58.0754L256.113 40.5371Z"/>
</mask>
<path d="M256.113 40.5371C257.558 38.866 257.378 36.3356 255.67 34.9346C239.525 21.6906 220.843 11.8593 200.755 6.05405C179.385 -0.121655 156.931 -1.59456 134.938 1.73666C112.944 5.06788 91.9333 13.1242 73.3508 25.3512C55.8829 36.8449 40.9505 51.7675 29.4515 69.1985C28.235 71.0426 28.8124 73.5127 30.6875 74.6809L50.3666 86.9416C52.2416 88.1097 54.7032 87.5326 55.9318 85.6966C65.0406 72.085 76.7882 60.4209 90.4928 51.4035C105.312 41.6525 122.068 35.2276 139.608 32.571C157.148 29.9144 175.055 31.089 192.097 36.0141C207.857 40.5687 222.532 48.2307 235.263 58.5344C236.98 59.9242 239.502 59.7465 240.947 58.0754L256.113 40.5371Z" fill="#BD5B00" stroke="black" stroke-width="2" mask="url(#path-2-inside-2_2549_703)"/>
</g>
<defs>
<filter id="filter0_d_2549_703" x="0" y="0" width="316" height="316" filterUnits="userSpaceOnUse" color-interpolation-filters="sRGB">
<feFlood flood-opacity="0" result="BackgroundImageFix"/>
<feColorMatrix in="SourceAlpha" type="matrix" values="0 0 0 0 0 0 0 0 0 0 0 0 0 0 0 0 0 0 127 0" result="hardAlpha"/>
<feOffset dy="4"/>
<feGaussianBlur stdDeviation="2"/>
<feComposite in2="hardAlpha" operator="out"/>
<feColorMatrix type="matrix" values="0 0 0 0 0 0 0 0 0 0 0 0 0 0 0 0 0 0 0.25 0"/>
<feBlend mode="normal" in2="BackgroundImageFix" result="effect1_dropShadow_2549_703"/>
<feBlend mode="normal" in="SourceGraphic" in2="effect1_dropShadow_2549_703" result="shape"/>
</filter>
</defs>
</svg>
